# xmcd
#
# Track frame offsets:
#	150
#	20890
#	41407
#	62092
#	81119
#	98302
#	116342
#	132390
#	146575
#	167062
#	179727
#	199082
#	218552
#	231905
#	247200
#	263642
#	282959
#
# Disc length: 3995 seconds
#
# Revision: 1
# Processed by: cddbd v1.5.1PL2 Copyright (c) Steve Scherf et al.
# Submitted via: audiograbber 1.83.01
#
DISCID=f60f9911
DTITLE=Duets - Thd0001
DYEAR=1900
DGENRE=Country
TTITLE0=N' Sync and Estefan, Gloria -  Music Of The Heart
TTITLE1=Cox, Deborah and R.L.. -  We Can't Be Friends
TTITLE2=Gill, Vince and Streisand, Barbara -  If You Ever Leave Me
TTITLE3=Black, Clint and Hartman. Lisa - When I Say I Do
TTITLE4=Rabbit, Eddie and Gayle, Crystal -  You And I
TTITLE5=Gill, Vince and Loveless, Patty -  My Kind Of Woman, My Kind Of Man
TTITLE6=Ronstadt, Linda and Neville, Aaron -  Don't Know Much
TTITLE7=Wynette, Tammy and Jones, George -  Golden Ring
TTITLE8=Dion, Celine and Anka, Paul -  It's Hard To Say Goodbye
TTITLE9=Wynette, Tammy and Jones, George -  Two Story House
TTITLE10=John, Elton and Rimes, LeAnn -  Written In The Stars
TTITLE11=McEntire, Reba and Davis, Linda -  Does He Love You
TTITLE12=Twitty, Conway and Lynn Loretta -  My Elusive Dreams
TTITLE13=McDonald, Michael and Mattea Kathy -  Among The Missing
TTITLE14=Gill, Vince and Knight, Gladys -  Ain't Nothing Like The Real Thing
TTITLE15=Kershaw, Sammy and Morgan, Lorrie -  Maybe Not Tonight
TTITLE16=Frizzell, David and West, Shelly -  You're The Reason God Made Oklahoma
EXTD=
EXTT0=
EXTT1=
EXTT2=
EXTT3=
EXTT4=
EXTT5=
EXTT6=
EXTT7=
EXTT8=
EXTT9=
EXTT10=
EXTT11=
EXTT12=
EXTT13=
EXTT14=
EXTT15=
EXTT16=
PLAYORDER=
